<svg width="34" height="34" viewBox="0 0 34 34" fill="none" xmlns="http://www.w3.org/2000/svg">
<path d="M17 0C26.3888 0 34 7.61116 34 17C34 26.3888 26.3888 34 17 34C7.61116 34 0 26.3888 0 17C0 7.61116 7.61116 0 17 0ZM21.9287 18.2002C21.9286 19.7258 20.681 20.9629 19.1426 20.9629V22.2373C20.6811 22.2373 21.9287 23.4743 21.9287 25H23.2139C23.2139 23.4743 24.4615 22.2373 26 22.2373V20.9629C24.4616 20.9629 23.214 19.7258 23.2139 18.2002H21.9287ZM13.1426 10.5498C13.1426 13.3665 10.8403 15.6504 8 15.6504V17.3496C10.8403 17.3496 13.1426 19.6336 13.1426 22.4502H14.8574C14.8574 19.6336 17.1597 17.3496 20 17.3496V15.6504C17.1597 15.6504 14.8574 13.3665 14.8574 10.5498H13.1426ZM21.2324 8C21.2324 9.14426 20.2965 10.0723 19.1426 10.0723V11.0283C20.2963 11.0283 21.2322 11.9555 21.2324 13.0996H22.1963C22.1965 11.9555 23.1324 11.0283 24.2861 11.0283V10.0723C23.1322 10.0723 22.1963 9.14426 22.1963 8H21.2324Z" fill="white"/>
</svg>
