<svg preserveAspectRatio="none" width="100%" height="100%" overflow="visible" style="display: block;" viewBox="0 0 139.643 32" fill="none" xmlns="http://www.w3.org/2000/svg">
<g id="Group 2">
<g id="Union">
<path d="M0 16.6878C2.01083 16.6878 4.00197 17.0839 5.85973 17.8534C7.7175 18.6229 9.40551 19.7508 10.8274 21.1727C12.2492 22.5945 13.3771 24.2825 14.1466 26.1403C14.9161 27.998 15.3122 29.9892 15.3122 32H1.56251C0.699558 32 3.77225e-08 31.3004 0 30.4375V16.6878Z" fill="var(--fill-0, #FF8D76)"/>
<path d="M30.2109 26.4208C30.1095 26.9722 29.7205 27.427 29.1915 27.6127L16.6879 32C16.6879 29.9892 17.084 27.998 17.8535 26.1403C18.623 24.2825 19.7509 22.5945 21.1728 21.1727C22.5946 19.7508 24.2826 18.6229 26.1404 17.8534C27.9982 17.0839 29.9893 16.6878 32.0001 16.6878L30.2109 26.4208Z" fill="var(--fill-0, #FF8D76)"/>
<path d="M15.3122 0C15.3122 2.01082 14.9161 4.00196 14.1466 5.85971C13.3771 7.71746 12.2492 9.40547 10.8274 10.8273C9.40551 12.2492 7.7175 13.3771 5.85973 14.1466C4.00197 14.9161 2.01083 15.3122 0 15.3122V1.5625C3.77225e-08 0.699555 0.699558 2.79988e-07 1.56251 0H15.3122Z" fill="var(--fill-0, #FF8D76)"/>
<path d="M28.3114 1.94684C28.9517 2.05409 29.4589 2.5461 29.5857 3.18283L32.0001 15.3122C29.9893 15.3122 27.9982 14.9161 26.1404 14.1466C24.2826 13.3771 22.5946 12.2492 21.1728 10.8273C19.7509 9.40547 18.623 7.71746 17.8535 5.85971C17.084 4.00196 16.6879 2.01082 16.6879 0L28.3114 1.94684Z" fill="var(--fill-0, #FF8D76)"/>
</g>
<g id="VibeCap">
<path id="Vector" d="M133.373 22.7269C132.343 22.7269 131.399 22.4929 130.542 22.025C129.699 21.5415 129.021 20.8318 128.506 19.8959C128.007 18.9601 127.757 17.7902 127.757 16.3864C127.757 14.9827 127.999 13.8128 128.483 12.877C128.982 11.9411 129.652 11.2392 130.495 10.7713C131.353 10.3034 132.312 10.0694 133.373 10.0694C134.589 10.0694 135.665 10.3346 136.601 10.8649C137.537 11.3952 138.278 12.1361 138.824 13.0875C139.37 14.0234 139.643 15.123 139.643 16.3864C139.643 17.6499 139.37 18.7573 138.824 19.7087C138.278 20.6602 137.537 21.4011 136.601 21.9314C135.665 22.4617 134.589 22.7269 133.373 22.7269ZM126.798 27.1254V10.1864H128.951V13.5321L128.81 16.4098L129.044 19.2876V27.1254H126.798ZM133.185 20.7616C133.981 20.7616 134.691 20.5822 135.314 20.2235C135.954 19.8647 136.453 19.3578 136.812 18.7027C137.186 18.032 137.373 17.2599 137.373 16.3864C137.373 15.4974 137.186 14.7331 136.812 14.0936C136.453 13.4385 135.954 12.9316 135.314 12.5728C134.691 12.2141 133.981 12.0347 133.185 12.0347C132.405 12.0347 131.696 12.2141 131.056 12.5728C130.432 12.9316 129.933 13.4385 129.559 14.0936C129.2 14.7331 129.021 15.4974 129.021 16.3864C129.021 17.2599 129.2 18.032 129.559 18.7027C129.933 19.3578 130.432 19.8647 131.056 20.2235C131.696 20.5822 132.405 20.7616 133.185 20.7616Z" fill="var(--fill-0, #244C64)"/>
<path id="Vector_2" d="M120.512 22.5865V19.9661L120.395 19.4748V15.0061C120.395 14.0546 120.114 13.3215 119.553 12.8068C119.007 12.2765 118.18 12.0113 117.073 12.0113C116.339 12.0113 115.622 12.1361 114.92 12.3857C114.218 12.6196 113.625 12.9394 113.142 13.3449L112.206 11.6604C112.846 11.1456 113.61 10.7557 114.499 10.4905C115.404 10.2098 116.347 10.0694 117.33 10.0694C119.03 10.0694 120.34 10.4827 121.26 11.3094C122.181 12.1361 122.641 13.3995 122.641 15.0996V22.5865H120.512ZM116.441 22.7269C115.521 22.7269 114.709 22.5709 114.008 22.259C113.321 21.947 112.791 21.5181 112.417 20.9721C112.042 20.4106 111.855 19.7789 111.855 19.077C111.855 18.4063 112.011 17.798 112.323 17.2521C112.651 16.7062 113.173 16.2695 113.891 15.9419C114.624 15.6144 115.606 15.4506 116.839 15.4506H120.769V17.0649H116.932C115.809 17.0649 115.053 17.2521 114.663 17.6265C114.273 18.0008 114.078 18.4531 114.078 18.9834C114.078 19.5918 114.32 20.0831 114.803 20.4574C115.287 20.8162 115.957 20.9955 116.815 20.9955C117.657 20.9955 118.391 20.8084 119.014 20.434C119.654 20.0597 120.114 19.5138 120.395 18.7963L120.839 20.3404C120.543 21.0735 120.02 21.6584 119.272 22.0952C118.523 22.5163 117.579 22.7269 116.441 22.7269Z" fill="var(--fill-0, #244C64)"/>
<path id="Vector_3" d="M103.946 22.7739C102.698 22.7739 101.544 22.5711 100.483 22.1655C99.4384 21.7444 98.5259 21.1595 97.746 20.4108C96.9817 19.6465 96.3812 18.7575 95.9445 17.7436C95.5077 16.7298 95.2894 15.6145 95.2894 14.3979C95.2894 13.1813 95.5077 12.0661 95.9445 11.0522C96.3812 10.0384 96.9895 9.15713 97.7694 8.40845C98.5493 7.64416 99.4618 7.05925 100.507 6.65371C101.567 6.23258 102.722 6.02201 103.969 6.02201C105.233 6.02201 106.395 6.24038 107.456 6.67711C108.532 7.09825 109.444 7.72995 110.193 8.57222L108.672 10.0462C108.048 9.3911 107.346 8.90757 106.566 8.59562C105.787 8.26807 104.952 8.10429 104.063 8.10429C103.143 8.10429 102.285 8.26027 101.489 8.57222C100.71 8.88417 100.031 9.32091 99.4539 9.88242C98.8768 10.4439 98.4245 11.1146 98.097 11.8945C97.785 12.6588 97.629 13.4933 97.629 14.3979C97.629 15.3026 97.785 16.1449 98.097 16.9247C98.4245 17.689 98.8768 18.3519 99.4539 18.9134C100.031 19.475 100.71 19.9117 101.489 20.2236C102.285 20.5356 103.143 20.6916 104.063 20.6916C104.952 20.6916 105.787 20.5356 106.566 20.2236C107.346 19.8961 108.048 19.397 108.672 18.7263L110.193 20.2002C109.444 21.0425 108.532 21.682 107.456 22.1188C106.395 22.5555 105.225 22.7739 103.946 22.7739Z" fill="var(--fill-0, #244C64)"/>
<path id="Vector_4" d="M87.4912 22.7269C86.1654 22.7269 84.9956 22.4539 83.9817 21.908C82.9835 21.3621 82.2036 20.6134 81.6421 19.6619C81.0961 18.7105 80.8232 17.6187 80.8232 16.3864C80.8232 15.1542 81.0883 14.0624 81.6187 13.1109C82.1646 12.1595 82.9055 11.4186 83.8413 10.8883C84.7928 10.3424 85.8612 10.0694 87.0467 10.0694C88.2477 10.0694 89.3083 10.3346 90.2286 10.8649C91.1488 11.3952 91.8663 12.1439 92.3811 13.1109C92.9114 14.0624 93.1765 15.1776 93.1765 16.4566C93.1765 16.5502 93.1687 16.6594 93.1531 16.7842C93.1531 16.909 93.1454 17.0259 93.1298 17.1351H82.5779V15.5208H91.9599L91.0475 16.0823C91.0631 15.2868 90.8993 14.5771 90.5561 13.9532C90.213 13.3293 89.7373 12.8458 89.1289 12.5026C88.5362 12.1439 87.8421 11.9645 87.0467 11.9645C86.2668 11.9645 85.5727 12.1439 84.9644 12.5026C84.3561 12.8458 83.8803 13.3371 83.5372 13.9766C83.194 14.6005 83.0225 15.318 83.0225 16.1291V16.5034C83.0225 17.3301 83.2096 18.071 83.584 18.7261C83.9739 19.3656 84.512 19.8647 85.1983 20.2235C85.8846 20.5822 86.6723 20.7616 87.5614 20.7616C88.2945 20.7616 88.9574 20.6368 89.5501 20.3872C90.1584 20.1377 90.6887 19.7633 91.141 19.2642L92.3811 20.7148C91.8195 21.3699 91.1177 21.869 90.2754 22.2122C89.4487 22.5553 88.5206 22.7269 87.4912 22.7269Z" fill="var(--fill-0, #244C64)"/>
<path id="Vector_5" d="M72.596 22.7265C71.5353 22.7265 70.5761 22.4926 69.7182 22.0246C68.8759 21.5411 68.2052 20.8314 67.7061 19.8956C67.2226 18.9597 66.9808 17.7899 66.9808 16.3861C66.9808 14.9823 67.2304 13.8125 67.7295 12.8766C68.2442 11.9408 68.9227 11.2389 69.765 10.7709C70.6229 10.303 71.5665 10.069 72.596 10.069C73.8126 10.069 74.8888 10.3342 75.8247 10.8645C76.7606 11.3948 77.5015 12.1357 78.0474 13.0872C78.5933 14.023 78.8663 15.1227 78.8663 16.3861C78.8663 17.6495 78.5933 18.7569 78.0474 19.7084C77.5015 20.6598 76.7606 21.4007 75.8247 21.931C74.8888 22.4614 73.8126 22.7265 72.596 22.7265ZM66.0216 22.5861V5.22599H68.2676V13.4849L68.0337 16.3627L68.174 19.2405V22.5861H66.0216ZM72.4088 20.7612C73.2043 20.7612 73.914 20.5818 74.5379 20.2231C75.1774 19.8644 75.6765 19.3574 76.0353 18.7023C76.4096 18.0316 76.5968 17.2596 76.5968 16.3861C76.5968 15.497 76.4096 14.7327 76.0353 14.0932C75.6765 13.4381 75.1774 12.9312 74.5379 12.5725C73.914 12.2137 73.2043 12.0344 72.4088 12.0344C71.6289 12.0344 70.9192 12.2137 70.2797 12.5725C69.6558 12.9312 69.1567 13.4381 68.7824 14.0932C68.4236 14.7327 68.2442 15.497 68.2442 16.3861C68.2442 17.2596 68.4236 18.0316 68.7824 18.7023C69.1567 19.3574 69.6558 19.8644 70.2797 20.2231C70.9192 20.5818 71.6289 20.7612 72.4088 20.7612Z" fill="var(--fill-0, #244C64)"/>
<path id="Vector_6" d="M59.4873 22.5861V10.186H61.7334V22.5861H59.4873ZM60.6104 7.79955C60.1736 7.79955 59.8071 7.65917 59.5107 7.37841C59.23 7.09766 59.0896 6.75451 59.0896 6.34897C59.0896 5.92784 59.23 5.57689 59.5107 5.29613C59.8071 5.01537 60.1736 4.875 60.6104 4.875C61.0471 4.875 61.4058 5.01537 61.6866 5.29613C61.983 5.56129 62.1311 5.89664 62.1311 6.30218C62.1311 6.72331 61.9908 7.08206 61.71 7.37841C61.4292 7.65917 61.0627 7.79955 60.6104 7.79955Z" fill="var(--fill-0, #244C64)"/>
<path id="Vector_7" d="M48.2263 22.5867L41.0201 6.20918H43.547L50.1682 21.3233H48.7176L55.3856 6.20918H57.7252L50.5425 22.5867H48.2263Z" fill="var(--fill-0, #244C64)"/>
</g>
</g>
</svg>
