<svg width="34" height="34" viewBox="0 0 34 34" fill="none" xmlns="http://www.w3.org/2000/svg">
<path d="M17 0C26.3888 0 34 7.61116 34 17C34 26.3888 26.3888 34 17 34C7.61116 34 0 26.3888 0 17C0 7.61116 7.61116 0 17 0ZM10 23.3975V25H24V23.3975H10ZM19.9941 9.23438C19.6904 8.9215 19.1974 8.9215 18.8936 9.23438L10 18.3965V21.7949H13.2998L22.1934 12.6338C22.4971 12.3209 22.4971 11.8139 22.1934 11.501L19.9941 9.23438ZM20.5439 12.0674L12.6553 20.1934H11.5557V19.0596L19.4443 10.9346L20.5439 12.0674Z" fill="white"/>
</svg>
