<svg preserveAspectRatio="none" width="100%" height="100%" overflow="visible" style="display: block;" viewBox="0 0 209.464 48" fill="none" xmlns="http://www.w3.org/2000/svg">
<g id="Group 2">
<g id="Union">
<path d="M7.62939e-05 25.0318C3.01632 25.0318 6.00304 25.6259 8.78968 26.7801C11.5763 27.9344 14.1083 29.6262 16.2411 31.759C18.374 33.8918 20.0658 36.4238 21.22 39.2104C22.3743 41.9971 22.9684 44.9838 22.9684 48H2.34384C1.04941 48 7.63505e-05 46.9507 7.62939e-05 45.6562V25.0318Z" fill="var(--fill-0, #FF8D76)"/>
<path d="M45.3165 39.6312C45.1644 40.4583 44.5809 41.1406 43.7873 41.419L25.0319 48C25.0319 44.9838 25.6261 41.9971 26.7803 39.2104C27.9346 36.4238 29.6264 33.8918 31.7592 31.759C33.892 29.6262 36.424 27.9344 39.2107 26.7801C41.9973 25.6259 44.984 25.0318 48.0003 25.0318L45.3165 39.6312Z" fill="var(--fill-0, #FF8D76)"/>
<path d="M22.9684 0C22.9684 3.01623 22.3743 6.00293 21.22 8.78957C20.0658 11.5762 18.374 14.1082 16.2411 16.241C14.1083 18.3738 11.5763 20.0656 8.78968 21.2199C6.00304 22.3741 3.01632 22.9682 7.62939e-05 22.9682V2.34375C7.63505e-05 1.04933 1.04941 4.19981e-07 2.34384 0H22.9684Z" fill="var(--fill-0, #FF8D76)"/>
<path d="M42.4671 2.92026C43.4276 3.08113 44.1885 3.81916 44.3786 4.77425L48.0003 22.9682C44.984 22.9682 41.9973 22.3741 39.2107 21.2199C36.424 20.0656 33.892 18.3738 31.7592 16.241C29.6264 14.1082 27.9346 11.5762 26.7803 8.78957C25.6261 6.00293 25.0319 3.01623 25.0319 0L42.4671 2.92026Z" fill="var(--fill-0, #FF8D76)"/>
</g>
<g id="VibeCap">
<path id="Vector" d="M200.059 34.0902C198.515 34.0902 197.099 33.7392 195.813 33.0373C194.549 32.312 193.531 31.2475 192.759 29.8437C192.011 28.4399 191.636 26.6852 191.636 24.5795C191.636 22.4738 191.999 20.7191 192.724 19.3153C193.473 17.9115 194.479 16.8587 195.742 16.1568C197.029 15.4549 198.468 15.104 200.059 15.104C201.884 15.104 203.498 15.5017 204.902 16.2972C206.306 17.0927 207.417 18.204 208.236 19.6312C209.055 21.035 209.464 22.6844 209.464 24.5795C209.464 26.4746 209.055 28.1358 208.236 29.563C207.417 30.9901 206.306 32.1015 204.902 32.897C203.498 33.6924 201.884 34.0902 200.059 34.0902ZM190.197 40.688V15.2794H193.426V20.298L193.216 24.6146L193.566 28.9313V40.688H190.197ZM199.778 31.1422C200.971 31.1422 202.036 30.8732 202.972 30.335C203.931 29.7969 204.68 29.0365 205.218 28.0539C205.779 27.0478 206.06 25.8897 206.06 24.5795C206.06 23.2459 205.779 22.0995 205.218 21.1403C204.68 20.1576 203.931 19.3972 202.972 18.8591C202.036 18.321 200.971 18.0519 199.778 18.0519C198.608 18.0519 197.544 18.321 196.585 18.8591C195.649 19.3972 194.9 20.1576 194.339 21.1403C193.8 22.0995 193.531 23.2459 193.531 24.5795C193.531 25.8897 193.8 27.0478 194.339 28.0539C194.9 29.0365 195.649 29.7969 196.585 30.335C197.544 30.8732 198.608 31.1422 199.778 31.1422Z" fill="var(--fill-0, #693E28)"/>
<path id="Vector_2" d="M180.768 33.8796V29.949L180.592 29.212V22.5089C180.592 21.0818 180.171 19.9821 179.329 19.21C178.51 18.4146 177.27 18.0168 175.609 18.0168C174.509 18.0168 173.433 18.204 172.38 18.5783C171.327 18.9293 170.438 19.4089 169.713 20.0172L168.309 17.4904C169.268 16.7183 170.415 16.1334 171.748 15.7357C173.105 15.3145 174.521 15.104 175.995 15.104C178.545 15.104 180.51 15.724 181.891 16.964C183.271 18.204 183.961 20.0991 183.961 22.6493V33.8796H180.768ZM174.661 34.0902C173.281 34.0902 172.064 33.8562 171.011 33.3883C169.982 32.9204 169.186 32.277 168.625 31.4581C168.063 30.6158 167.783 29.6683 167.783 28.6154C167.783 27.6094 168.017 26.6969 168.485 25.878C168.976 25.0592 169.76 24.4041 170.836 23.9127C171.936 23.4214 173.409 23.1757 175.258 23.1757H181.154V25.5973H175.398C173.714 25.5973 172.579 25.878 171.994 26.4395C171.409 27.0011 171.117 27.6796 171.117 28.475C171.117 29.3875 171.479 30.1245 172.205 30.686C172.93 31.2241 173.936 31.4932 175.223 31.4932C176.486 31.4932 177.586 31.2124 178.522 30.6509C179.481 30.0894 180.171 29.2705 180.592 28.1943L181.259 30.5105C180.814 31.6102 180.031 32.4875 178.908 33.1426C177.785 33.7743 176.369 34.0902 174.661 34.0902Z" fill="var(--fill-0, #693E28)"/>
<path id="Vector_3" d="M155.92 34.1607C154.048 34.1607 152.317 33.8565 150.726 33.2482C149.158 32.6165 147.79 31.7391 146.62 30.6161C145.473 29.4697 144.573 28.1361 143.918 26.6153C143.262 25.0946 142.935 23.4217 142.935 21.5968C142.935 19.7719 143.262 18.099 143.918 16.5783C144.573 15.0575 145.485 13.7356 146.655 12.6126C147.825 11.4661 149.193 10.5888 150.761 9.98047C152.352 9.34876 154.083 9.03291 155.955 9.03291C157.85 9.03291 159.593 9.36046 161.184 10.0156C162.799 10.6473 164.167 11.5948 165.29 12.8582L163.009 15.0692C162.073 14.0865 161.02 13.3613 159.851 12.8933C158.681 12.402 157.429 12.1563 156.095 12.1563C154.715 12.1563 153.428 12.3903 152.235 12.8582C151.065 13.3262 150.047 13.9813 149.182 14.8235C148.316 15.6658 147.638 16.6718 147.146 17.8417C146.678 18.9881 146.444 20.2398 146.444 21.5968C146.444 22.9538 146.678 24.2172 147.146 25.387C147.638 26.5334 148.316 27.5278 149.182 28.3701C150.047 29.2123 151.065 29.8674 152.235 30.3354C153.428 30.8033 154.715 31.0373 156.095 31.0373C157.429 31.0373 158.681 30.8033 159.851 30.3354C161.02 29.844 162.073 29.0953 163.009 28.0893L165.29 30.3003C164.167 31.5637 162.799 32.5229 161.184 33.178C159.593 33.8331 157.838 34.1607 155.92 34.1607Z" fill="var(--fill-0, #693E28)"/>
<path id="Vector_4" d="M131.237 34.0902C129.248 34.0902 127.493 33.6807 125.973 32.8619C124.475 32.043 123.305 30.92 122.463 29.4928C121.644 28.0656 121.235 26.4278 121.235 24.5795C121.235 22.7312 121.633 21.0935 122.428 19.6663C123.247 18.2391 124.358 17.1278 125.762 16.3323C127.189 15.5134 128.792 15.104 130.57 15.104C132.372 15.104 133.962 15.5017 135.343 16.2972C136.723 17.0927 137.8 18.2157 138.572 19.6663C139.367 21.0935 139.765 22.7663 139.765 24.6848C139.765 24.8252 139.753 24.989 139.73 25.1761C139.73 25.3633 139.718 25.5388 139.695 25.7026H123.867V23.281H137.94L136.571 24.1233C136.595 22.9301 136.349 21.8655 135.834 20.9297C135.319 19.9938 134.606 19.2685 133.693 18.7538C132.804 18.2157 131.763 17.9466 130.57 17.9466C129.4 17.9466 128.359 18.2157 127.447 18.7538C126.534 19.2685 125.82 20.0055 125.306 20.9648C124.791 21.9006 124.534 22.9769 124.534 24.1935V24.755C124.534 25.995 124.814 27.1063 125.376 28.089C125.961 29.0482 126.768 29.7969 127.797 30.3351C128.827 30.8732 130.008 31.1422 131.342 31.1422C132.442 31.1422 133.436 30.9551 134.325 30.5807C135.238 30.2064 136.033 29.6449 136.712 28.8962L138.572 31.072C137.729 32.0547 136.676 32.8034 135.413 33.3181C134.173 33.8328 132.781 34.0902 131.237 34.0902Z" fill="var(--fill-0, #693E28)"/>
<path id="Vector_5" d="M108.895 34.0899C107.304 34.0899 105.865 33.739 104.578 33.0371C103.315 32.3118 102.309 31.2472 101.56 29.8434C100.835 28.4397 100.472 26.6849 100.472 24.5792C100.472 22.4736 100.846 20.7188 101.595 19.315C102.367 17.9113 103.385 16.8584 104.648 16.1565C105.935 15.4546 107.35 15.1037 108.895 15.1037C110.72 15.1037 112.334 15.5014 113.738 16.2969C115.142 17.0924 116.253 18.2037 117.072 19.6309C117.891 21.0347 118.3 22.6841 118.3 24.5792C118.3 26.4744 117.891 28.1355 117.072 29.5627C116.253 30.9899 115.142 32.1012 113.738 32.8967C112.334 33.6922 110.72 34.0899 108.895 34.0899ZM99.033 33.8793V7.8391H102.402V20.2275L102.051 24.5442L102.262 28.8608V33.8793H99.033ZM108.614 31.1419C109.807 31.1419 110.872 30.8729 111.807 30.3348C112.767 29.7967 113.515 29.0363 114.054 28.0536C114.615 27.0476 114.896 25.8894 114.896 24.5792C114.896 23.2457 114.615 22.0992 114.054 21.14C113.515 20.1573 112.767 19.3969 111.807 18.8588C110.872 18.3207 109.807 18.0516 108.614 18.0516C107.444 18.0516 106.379 18.3207 105.42 18.8588C104.484 19.3969 103.736 20.1573 103.174 21.14C102.636 22.0992 102.367 23.2457 102.367 24.5792C102.367 25.8894 102.636 27.0476 103.174 28.0536C103.736 29.0363 104.484 29.7967 105.42 30.3348C106.379 30.8729 107.444 31.1419 108.614 31.1419Z" fill="var(--fill-0, #693E28)"/>
<path id="Vector_6" d="M89.2313 33.8792V15.279H92.6004V33.8792H89.2313ZM90.9159 11.6993C90.2608 11.6993 89.711 11.4888 89.2664 11.0676C88.8453 10.6465 88.6347 10.1318 88.6347 9.52346C88.6347 8.89176 88.8453 8.36534 89.2664 7.9442C89.711 7.52307 90.2608 7.3125 90.9159 7.3125C91.571 7.3125 92.1091 7.52307 92.5302 7.9442C92.9748 8.34194 93.197 8.84497 93.197 9.45327C93.197 10.085 92.9865 10.6231 92.5653 11.0676C92.1442 11.4888 91.5944 11.6993 90.9159 11.6993Z" fill="var(--fill-0, #693E28)"/>
<path id="Vector_7" d="M72.3397 33.8799L61.5305 9.31366H65.3207L75.2526 31.9848H73.0767L83.0787 9.31366H86.5882L75.8141 33.8799H72.3397Z" fill="var(--fill-0, #693E28)"/>
</g>
</g>
</svg>
